<?xml version="1.0" standalone="no"?>
<!DOCTYPE svg PUBLIC "-//W3C//DTD SVG 20010904//EN"
 "http://www.w3.org/TR/2001/REC-SVG-20010904/DTD/svg10.dtd">
<svg version="1.0" xmlns="http://www.w3.org/2000/svg"
 width="500.000000pt" height="500.000000pt" viewBox="0 0 500.000000 500.000000"
 preserveAspectRatio="xMidYMid meet">
<metadata>
Created by potrace 1.14, written by Peter Selinger 2001-2017
</metadata>
<g transform="translate(0.000000,500.000000) scale(0.100000,-0.100000)"
fill="#000000" stroke="none">
<path d="M2438 4992 c-21 -2 -38 -8 -38 -14 0 -6 -3 -9 -6 -5 -4 3 -21 -1 -38
-10 -17 -10 -33 -18 -36 -18 -3 0 -20 -9 -37 -18 -18 -10 -33 -14 -33 -10 0 5
-5 0 -11 -10 -6 -9 -14 -15 -20 -12 -5 4 -9 1 -9 -4 0 -6 -6 -11 -14 -11 -8 0
-16 -7 -20 -15 -3 -8 -12 -15 -19 -15 -12 0 -26 -9 -74 -50 -7 -5 -16 -10 -20
-10 -5 0 -16 -8 -25 -17 -8 -10 -31 -29 -49 -43 -39 -28 -172 -162 -209 -210
-14 -17 -33 -41 -42 -52 -10 -12 -18 -25 -18 -30 0 -5 -5 -6 -10 -3 -6 4 -9 3
-8 -2 2 -8 -20 -54 -31 -63 -13 -11 -51 -70 -51 -80 0 -5 -4 -10 -10 -10 -5 0
-12 -11 -16 -25 -3 -14 -9 -25 -13 -25 -8 0 -32 -42 -89 -155 -19 -38 -40 -73
-46 -77 -6 -4 -7 -8 -3 -8 4 0 2 -10 -5 -22 -7 -13 -12 -27 -13 -31 0 -4 -4
-11 -10 -15 -5 -4 -12 -16 -13 -27 -2 -11 -10 -27 -18 -36 -8 -8 -14 -21 -14
-27 0 -7 -4 -20 -10 -30 -13 -23 -80 -171 -80 -177 0 -2 -13 -32 -29 -67 -27
-61 -43 -98 -46 -108 0 -3 -11 -27 -24 -55 -12 -27 -24 -54 -25 -60 -1 -5 -16
-41 -34 -78 -18 -38 -32 -70 -32 -72 0 -3 -11 -28 -24 -57 -13 -29 -25 -57
-26 -63 -1 -5 -11 -28 -23 -50 -11 -22 -19 -41 -19 -42 1 -2 -6 -20 -15 -40
-34 -83 -72 -193 -66 -193 3 0 -1 -8 -10 -17 -8 -10 -16 -22 -17 -28 -2 -5 -6
-20 -11 -33 -5 -13 -12 -34 -15 -47 -3 -14 -10 -25 -15 -25 -5 0 -8 -3 -8 -7
3 -16 -14 -73 -21 -73 -5 0 -7 -8 -5 -17 1 -10 0 -22 -4 -28 -3 -5 -6 -22 -7
-37 -1 -16 -3 -30 -4 -33 -6 -13 -5 -31 2 -42 5 -6 5 -14 1 -16 -9 -6 -9 -125
0 -134 4 -3 2 -13 -3 -23 -5 -10 -6 -20 -3 -24 7 -7 11 -24 15 -63 1 -13 5
-23 8 -23 3 0 7 -10 7 -22 1 -13 7 -24 13 -26 5 -2 10 -10 10 -17 0 -17 97
-199 124 -235 7 -8 18 -27 26 -43 7 -15 17 -27 21 -27 5 0 6 -7 3 -15 -4 -8
-2 -15 4 -15 9 0 77 -101 73 -107 0 -2 7 -11 17 -21 9 -11 37 -47 62 -82 25
-35 50 -69 57 -76 7 -6 14 -17 15 -24 2 -7 12 -22 23 -34 11 -12 31 -37 45
-55 14 -19 31 -40 38 -47 6 -7 12 -15 12 -19 0 -4 6 -12 13 -19 6 -7 23 -28
37 -46 14 -18 35 -44 47 -59 13 -14 23 -30 23 -34 0 -5 5 -5 10 -2 5 3 10 0
10 -7 0 -8 21 -36 46 -64 26 -27 53 -59 61 -71 9 -13 19 -20 24 -17 5 3 8 2 7
-3 -2 -4 10 -22 26 -40 47 -53 56 -30 59 137 1 81 -2 141 -7 143 -6 2 -2 6 7
10 12 5 17 1 17 -13 0 -11 5 -20 11 -20 8 0 8 -5 -1 -15 -7 -8 -8 -15 -3 -15
9 0 15 -23 24 -87 1 -5 6 -19 11 -33 6 -14 12 -38 15 -55 3 -16 9 -35 14 -41
5 -6 10 -23 11 -38 1 -14 6 -26 10 -26 4 0 7 -3 6 -8 -4 -11 63 -176 74 -183
5 -3 9 -8 7 -10 -4 -7 33 -78 47 -90 8 -6 14 -18 14 -26 0 -7 7 -16 15 -19 8
-4 13 -10 10 -14 -3 -5 5 -16 17 -24 12 -9 18 -16 13 -16 -5 0 1 -7 13 -16 13
-9 26 -13 29 -10 4 3 2 6 -4 6 -5 0 -10 7 -10 15 0 8 5 15 11 15 7 0 7 3 -1 8
-6 4 -14 19 -16 32 -2 14 -7 33 -11 42 -4 9 -6 24 -4 33 3 15 6 14 31 -5 15
-12 27 -26 27 -31 0 -6 14 -30 30 -54 17 -24 30 -48 30 -54 0 -6 5 -11 10 -11
6 0 10 -7 10 -15 0 -8 5 -15 10 -15 6 0 10 -5 10 -10 0 -6 5 -16 10 -23 6 -7
27 -35 48 -63 112 -154 197 -244 228 -244 25 0 56 28 129 116 22 26 48 56 58
66 9 10 15 18 12 18 -3 0 3 9 13 19 30 34 39 47 56 79 9 18 21 32 27 32 6 0 8
4 5 9 -3 5 4 20 17 33 12 14 23 31 25 38 1 7 9 19 17 27 8 8 15 19 15 24 0 16
32 44 50 45 12 1 16 -5 13 -17 -3 -11 -9 -19 -13 -19 -5 0 -6 -9 -3 -20 3 -11
1 -20 -4 -20 -5 0 -9 -10 -7 -23 1 -12 3 -29 3 -37 1 -12 4 -11 15 3 8 10 17
18 21 17 10 -2 75 99 75 116 0 9 5 12 10 9 9 -5 12 1 9 21 0 4 4 10 10 13 13
8 55 102 52 119 -1 6 3 12 10 12 6 0 9 7 5 15 -3 8 -2 15 3 15 8 0 25 56 22
72 0 5 4 8 10 8 6 0 9 7 6 15 -4 8 -2 17 2 19 5 3 12 20 16 38 4 18 9 40 11
48 2 8 5 25 6 37 1 13 6 23 11 23 4 0 7 6 6 12 -1 7 1 25 5 39 4 14 8 33 10
43 1 10 9 22 17 27 10 6 10 9 2 9 -17 0 -16 12 0 35 9 11 19 15 27 10 10 -6 9
-9 -1 -16 -11 -7 -11 -9 -1 -9 7 0 11 -4 7 -9 -3 -6 -7 -75 -9 -155 -3 -132
-2 -146 13 -146 10 0 31 17 47 37 16 21 37 45 47 55 9 10 17 23 17 28 0 6 7
10 17 10 9 0 14 3 10 6 -3 3 18 30 48 60 29 30 50 54 47 54 -3 0 4 8 14 17 11
10 35 39 54 66 19 26 45 60 58 75 12 15 35 45 50 67 15 22 30 42 33 45 3 3 20
26 37 52 18 25 38 53 46 61 8 8 13 16 11 19 -2 2 7 17 20 32 14 16 22 33 18
39 -3 5 -1 7 4 4 10 -7 28 20 25 36 -1 4 2 7 7 7 9 0 71 96 71 111 0 5 4 9 10
9 5 0 17 17 27 38 9 20 20 39 23 42 14 12 78 139 73 144 -4 3 -2 6 4 6 9 0 32
46 44 85 1 6 9 16 16 23 7 8 11 17 8 22 -3 5 -1 11 5 15 6 4 8 11 5 16 -4 5
-3 9 2 9 4 0 9 10 10 23 3 34 8 51 17 66 7 10 6 12 -4 6 -9 -6 -11 -4 -5 5 9
15 14 150 5 150 -3 0 -6 23 -7 51 -1 29 -9 69 -17 90 -9 22 -16 42 -17 47 -1
4 -5 17 -10 30 -5 13 -12 35 -15 50 -4 15 -13 35 -21 44 -8 9 -12 22 -8 27 3
6 1 11 -4 11 -6 0 -11 7 -11 15 0 8 -9 30 -20 50 -11 19 -18 35 -15 35 2 0 -9
31 -25 69 -15 38 -26 72 -22 75 3 3 0 6 -6 6 -7 0 -11 3 -10 8 1 7 -11 41 -31
87 -5 11 -16 37 -26 58 -9 21 -18 47 -20 59 -3 12 -10 25 -17 30 -7 4 -9 8 -4
8 4 0 1 11 -8 25 -9 13 -16 31 -16 39 0 9 -13 44 -29 78 -17 35 -39 86 -51
113 -12 28 -30 68 -40 90 -10 22 -27 61 -39 88 -12 26 -30 66 -40 90 -10 23
-25 57 -32 75 -8 17 -18 32 -22 32 -5 0 -7 6 -4 13 2 6 -4 23 -13 37 -10 14
-18 28 -19 33 0 4 -17 41 -36 82 -20 41 -35 78 -35 81 1 4 -2 10 -7 13 -4 3
-17 24 -29 46 -29 56 -48 89 -55 95 -8 7 -22 44 -21 53 1 4 -5 7 -13 7 -8 0
-15 5 -15 11 0 6 -13 30 -30 54 -16 24 -30 49 -30 55 0 6 -4 8 -10 5 -5 -3
-10 -1 -10 4 0 23 -2 26 -23 38 -12 6 -21 14 -19 17 5 12 2 29 -5 23 -3 -4
-18 11 -33 33 -15 22 -30 37 -33 33 -4 -3 -7 1 -7 10 0 9 -7 17 -16 17 -8 0
-14 3 -12 8 2 4 -11 21 -29 39 -18 17 -33 30 -33 27 0 -2 -16 12 -35 31 -19
19 -39 35 -45 35 -6 0 -8 5 -5 10 3 6 1 10 -5 10 -6 0 -17 6 -24 13 -8 6 -24
19 -36 27 -12 8 -28 20 -34 25 -6 6 -27 18 -46 28 -19 9 -30 17 -25 17 10 1
-31 25 -97 57 -21 10 -38 21 -38 26 0 4 -4 6 -9 2 -5 -3 -15 1 -23 8 -15 15
-66 35 -88 36 -8 0 -33 1 -55 3 -22 2 -57 2 -77 0z m-368 -4426 c0 -3 -4 -8
-10 -11 -5 -3 -10 -1 -10 4 0 6 5 11 10 11 6 0 10 -2 10 -4z"/>
</g>
</svg>
