<svg xmlns="http://www.w3.org/2000/svg" viewBox="0 0 1400 1600">
  <defs>
    <style>
      .node-agent { fill: #4488ff; stroke: #000; stroke-width: 2; }
      .node-gate { fill: #ff8800; stroke: #000; stroke-width: 2; }
      .node-safe { fill: #44aa44; stroke: #000; stroke-width: 2; }
      .node-challenge { fill: #ffcc00; stroke: #000; stroke-width: 2; }
      .node-reject { fill: #ff4444; stroke: #000; stroke-width: 2; }
      .node-execute { fill: #44aa44; stroke: #000; stroke-width: 2; }
      .node-user { fill: #4488ff; stroke: #000; stroke-width: 2; }
      .text { font-family: Arial, sans-serif; font-size: 12px; text-anchor: middle; fill: white; font-weight: bold; }
      .text-dark { font-family: Arial, sans-serif; font-size: 12px; text-anchor: middle; fill: black; font-weight: bold; }
      .edge { stroke: #333; stroke-width: 2; fill: none; marker-end: url(#arrowhead); }
      .edge-label { font-family: Arial, sans-serif; font-size: 10px; fill: #333; }
    </style>
    <marker id="arrowhead" markerWidth="10" markerHeight="10" refX="9" refY="3" orient="auto">
      <polygon points="0 0, 10 3, 0 6" fill="#333" />
    </marker>
  </defs>

  <!-- Title -->
  <text x="700" y="30" style="font-family: Arial, sans-serif; font-size: 18px; font-weight: bold; text-anchor: middle; fill: #333;">Maze Design: Agent Authorization Flow</text>

  <!-- AGENT Node -->
  <rect x="500" y="80" width="400" height="60" rx="5" class="node-agent"/>
  <text x="700" y="115" class="text">AI Agent - Requests: change_email</text>

  <!-- Arrow from Agent to G1 -->
  <path d="M 700 140 L 700 190" class="edge"/>

  <!-- GATE 1 -->
  <polygon points="700,190 800,250 700,310 600,250" class="node-gate"/>
  <text x="700" y="250" class="text" style="font-size: 11px;">GATE 1 - Intent</text>
  <text x="700" y="265" class="text" style="font-size: 11px;">Classification</text>

  <!-- G1 -> No: Safe action (left) -->
  <path d="M 600 250 L 400 250" class="edge"/>
  <text x="490" y="245" class="edge-label">No: Safe action</text>
  <rect x="250" y="220" width="150" height="60" rx="5" class="node-safe"/>
  <text x="327" y="250" class="text" style="font-size: 10px;">Execute directly</text>
  <text x="327" y="265" class="text" style="font-size: 10px;">Read-only, no mutation</text>

  <!-- G1 -> Yes: Privileged (right) -->
  <path d="M 800 250 L 950 250" class="edge"/>
  <text x="860" y="245" class="edge-label">Yes: Privileged</text>
  <path d="M 950 250 L 1000 320" class="edge"/>

  <!-- GATE 2 -->
  <polygon points="1100,320 1200,380 1100,440 1000,380" class="node-gate"/>
  <text x="1100" y="375" class="text" style="font-size: 10px;">GATE 2 - Identity</text>
  <text x="1100" y="390" class="text" style="font-size: 10px;">Verification</text>

  <!-- G2 -> Cannot determine (top) -->
  <path d="M 1100 320 L 1100 220" class="edge"/>
  <text x="1130" y="270" class="edge-label">Cannot determine</text>
  <rect x="1000" y="160" width="200" height="60" rx="5" class="node-reject"/>
  <text x="1100" y="190" class="text" style="font-size: 10px;">Blocked - Cannot verify</text>
  <text x="1100" y="205" class="text" style="font-size: 10px;">ownership</text>

  <!-- G2 -> Not verified (bottom-left) -->
  <path d="M 1000 380 L 850 480" class="edge"/>
  <text x="900" y="425" class="edge-label">Not verified</text>
  <rect x="700" y="450" width="150" height="60" rx="5" class="node-challenge"/>
  <text x="775" y="475" class="text-dark" style="font-size: 10px;">Verification</text>
  <text x="775" y="490" class="text-dark" style="font-size: 9px;">challenge sent</text>
  <text x="775" y="503" class="text-dark" style="font-size: 9px;">to email</text>

  <!-- G2 -> Verified owner (bottom-right) -->
  <path d="M 1200 380 L 1200 480" class="edge"/>
  <text x="1220" y="425" class="edge-label">Verified owner</text>
  <path d="M 1200 480 L 1100 540" class="edge"/>

  <!-- GATE 3 -->
  <polygon points="1100,540 1200,600 1100,660 1000,600" class="node-gate"/>
  <text x="1100" y="595" class="text" style="font-size: 11px;">GATE 3 - Capability</text>
  <text x="1100" y="610" class="text" style="font-size: 11px;">Scope</text>

  <!-- Challenge -> User (left path) -->
  <path d="M 775 510 L 775 560" class="edge"/>
  <rect x="700" y="560" width="150" height="60" rx="5" class="node-user"/>
  <text x="775" y="590" class="text">User submits token</text>
  <text x="775" y="605" class="text">from email</text>

  <!-- User -> Token invalid (left-bottom) -->
  <path d="M 700 620 L 580 680" class="edge"/>
  <text x="630" y="660" class="edge-label">Token invalid</text>
  <rect x="480" y="650" width="200" height="60" rx="5" class="node-reject"/>
  <text x="580" y="680" class="text" style="font-size: 10px;">Blocked - Invalid or</text>
  <text x="580" y="695" class="text" style="font-size: 10px;">expired token</text>

  <!-- User -> Token valid (right path) -->
  <path d="M 850 590 L 950 590 L 1000 600" class="edge"/>
  <text x="920" y="585" class="edge-label">Token valid</text>

  <!-- G3 -> Read-only (left) -->
  <path d="M 1000 600 L 900 700" class="edge"/>
  <text x="920" y="650" class="edge-label">Read-only</text>
  <rect x="750" y="700" width="150" height="60" rx="5" class="node-safe"/>
  <text x="825" y="725" class="text" style="font-size: 10px;">Execute - Safe</text>
  <text x="825" y="740" class="text" style="font-size: 10px;">operation</text>

  <!-- G3 -> Mutation (right) -->
  <path d="M 1200 600 L 1200 720" class="edge"/>
  <text x="1220" y="660" class="edge-label">Mutation</text>
  <path d="M 1200 720 L 1100 780" class="edge"/>

  <!-- GATE 4 -->
  <polygon points="1100,780 1200,840 1100,900 1000,840" class="node-gate"/>
  <text x="1100" y="835" class="text" style="font-size: 11px;">GATE 4 - Policy</text>
  <text x="1100" y="850" class="text" style="font-size: 11px;">Engine</text>

  <!-- G4 -> Policy denies (right) -->
  <path d="M 1200 840 L 1300 840" class="edge"/>
  <text x="1270" y="835" class="edge-label">Denies</text>
  <rect x="1300" y="810" width="100" height="60" rx="5" class="node-reject"/>
  <text x="1350" y="840" class="text" style="font-size: 10px;">Blocked -</text>
  <text x="1350" y="855" class="text" style="font-size: 10px;">Policy violation</text>

  <!-- G4 -> Policy allows (bottom) -->
  <path d="M 1100 900 L 1100 960" class="edge"/>
  <text x="1130" y="930" class="edge-label">Policy allows</text>

  <!-- GATE 5 -->
  <polygon points="1100,960 1200,1020 1100,1080 1000,1020" class="node-gate"/>
  <text x="1100" y="1015" class="text" style="font-size: 11px;">GATE 5 - Rate</text>
  <text x="1100" y="1030" class="text" style="font-size: 11px;">Limit</text>

  <!-- G5 -> Rate exceeded (right) -->
  <path d="M 1200 1020 L 1300 1020" class="edge"/>
  <text x="1270" y="1015" class="edge-label">Exceeded</text>
  <rect x="1300" y="990" width="100" height="60" rx="5" class="node-reject"/>
  <text x="1350" y="1015" class="text" style="font-size: 10px;">Blocked -</text>
  <text x="1350" y="1030" class="text" style="font-size: 10px;">Rate limit</text>

  <!-- G5 -> Within bounds (bottom) -->
  <path d="M 1100 1080 L 1100 1140" class="edge"/>
  <text x="1130" y="1110" class="edge-label">Within bounds</text>

  <!-- EXECUTE -->
  <rect x="950" y="1140" width="300" height="60" rx="5" class="node-execute"/>
  <text x="1100" y="1170" class="text">Action executed - Audit log written</text>

  <!-- Legend -->
  <text x="50" y="1350" style="font-family: Arial, sans-serif; font-size: 14px; font-weight: bold; fill: #333;">Legend:</text>
  
  <rect x="50" y="1370" width="20" height="20" class="node-agent"/>
  <text x="80" y="1385" style="font-family: Arial, sans-serif; font-size: 12px; fill: #333;">Agent/User</text>
  
  <polygon points="180,1370 200,1380 180,1390 160,1380" class="node-gate"/>
  <text x="210" y="1385" style="font-family: Arial, sans-serif; font-size: 12px; fill: #333;">Gate (Decision)</text>
  
  <rect x="400" y="1370" width="20" height="20" class="node-safe"/>
  <text x="430" y="1385" style="font-family: Arial, sans-serif; font-size: 12px; fill: #333;">Safe/Execute</text>
  
  <rect x="650" y="1370" width="20" height="20" class="node-challenge"/>
  <text x="680" y="1385" style="font-family: Arial, sans-serif; font-size: 12px; fill: #333;">Challenge/Verification</text>
  
  <rect x="1000" y="1370" width="20" height="20" class="node-reject"/>
  <text x="1030" y="1385" style="font-family: Arial, sans-serif; font-size: 12px; fill: #333;">Blocked/Reject</text>

</svg>